HIERARCHY
ROOT SpineBase
{
  OFFSET 0.000000 0.000000 0.000000
  CHANNELS 6 Xposition Yposition Zposition Zrotation Xrotation Yrotation
  JOINT SpineMid
  {
    OFFSET 0.000000 33.287410 -0.000000
    CHANNELS 3 Zrotation Xrotation Yrotation
    JOINT SpineShoulder
    {
      OFFSET 0.148084 24.660566 -0.699711
      CHANNELS 3 Zrotation Xrotation Yrotation
      JOINT Neck
      {
        OFFSET 0.117274 8.143229 -0.588081
        CHANNELS 3 Zrotation Xrotation Yrotation
        JOINT Head
        {
          OFFSET -1.530599 9.733955 7.029461
          CHANNELS 3 Zrotation Xrotation Yrotation
          End Site
          {
            OFFSET 0 0 0
          }
        }
      }
      JOINT ShoulderLeft
      {
        OFFSET -14.548685 -7.463650 -7.216288
        CHANNELS 3 Zrotation Xrotation Yrotation
        JOINT ElbowLeft
        {
          OFFSET -6.336922 -25.107484 4.184952
          CHANNELS 3 Zrotation Xrotation Yrotation
          JOINT WristLeft
          {
            OFFSET -4.461794 -24.588824 7.623479
            CHANNELS 3 Zrotation Xrotation Yrotation
            JOINT HandLeft
            {
              OFFSET -1.578961 -8.968210 2.625929
              CHANNELS 3 Zrotation Xrotation Yrotation
              JOINT HandTipLeft
              {
                OFFSET 1.292414 -7.082540 1.649702
                CHANNELS 3 Zrotation Xrotation Yrotation
                End Site
                {
                  OFFSET 0 0 0
                }
              }
              JOINT ThumbLeft
              {
                OFFSET -1.331909 -4.234076 -4.236564
                CHANNELS 3 Zrotation Xrotation Yrotation
                End Site
                {
                  OFFSET 0 0 0
                }
              }
            }
          }
        }
      }
      JOINT ShoulderRight
      {
        OFFSET 15.456404 -6.081660 -3.879197
        CHANNELS 3 Zrotation Xrotation Yrotation
        JOINT ElbowRight
        {
          OFFSET 4.507760 -25.514660 4.972609
          CHANNELS 3 Zrotation Xrotation Yrotation
          JOINT WristRight
          {
            OFFSET 1.637110 -24.944568 7.801861
            CHANNELS 3 Zrotation Xrotation Yrotation
            JOINT HandRight
            {
              OFFSET -0.355592 -7.669458 1.090465
              CHANNELS 3 Zrotation Xrotation Yrotation
              JOINT HandTipRight
              {
                OFFSET 4.307495 -7.202381 5.241841
                CHANNELS 3 Zrotation Xrotation Yrotation
                End Site
                {
                  OFFSET 0 0 0
                }
              }
              JOINT ThumbRight
              {
                OFFSET 1.831949 -2.811222 -3.903352
                CHANNELS 3 Zrotation Xrotation Yrotation
                End Site
                {
                  OFFSET 0 0 0
                }
              }
            }
          }
        }
      }
    }
  }
  JOINT HipLeft
  {
    OFFSET -5.231679 1.070503 -4.706361
    CHANNELS 3 Zrotation Xrotation Yrotation
    JOINT KneeLeft
    {
      OFFSET -1.111624 -39.193996 -5.363196
      CHANNELS 3 Zrotation Xrotation Yrotation
      JOINT AnkleLeft
      {
        OFFSET 1.349795 -35.337766 -1.998454
        CHANNELS 3 Zrotation Xrotation Yrotation
        JOINT FootLeft
        {
          OFFSET 3.022455 -3.901973 -10.745369
          CHANNELS 3 Zrotation Xrotation Yrotation
          End Site
          {
            OFFSET 0 0 0
          }
        }
      }
    }
  }
  JOINT HipRight
  {
    OFFSET 7.013329 1.063220 -2.963806
    CHANNELS 3 Zrotation Xrotation Yrotation
    JOINT KneeRight
    {
      OFFSET 1.737111 -39.530369 -5.495093
      CHANNELS 3 Zrotation Xrotation Yrotation
      JOINT AnkleRight
      {
        OFFSET 0.277453 -34.148350 -1.818488
        CHANNELS 3 Zrotation Xrotation Yrotation
        JOINT FootRight
        {
          OFFSET 2.761774 -2.615818 -15.175246
          CHANNELS 3 Zrotation Xrotation Yrotation
          End Site
          {
            OFFSET 0 0 0
          }
        }
      }
    }
  }
}
MOTION
Frames: 13
Frame Time: 0.033333
-70.759028 80.607478 306.659509 -0.000000 -0.000000 -8.099230 0.000000 0.000000 8.099230 -0.000000 0.000000 0.000000 -0.000000 0.000000 0.000000 0.000000 0.000000 0.000000 -0.000000 0.000000 0.000000 -0.000000 0.000000 0.000000 -0.000000 0.000000 0.000000 -0.000000 0.000000 0.000000 0.000000 0.000000 0.000000 0.000000 0.000000 0.000000 -0.000000 0.000000 0.000000 -0.000000 0.000000 0.000000 -0.000000 0.000000 0.000000 -0.000000 0.000000 0.000000 0.000000 0.000000 0.000000 0.000000 0.000000 0.000000 0.000000 0.000000 8.099230 -0.000000 0.000000 0.000000 -0.000000 0.000000 0.000000 0.000000 0.000000 0.000000 0.000000 0.000000 8.099230 -0.000000 0.000000 0.000000 -0.000000 0.000000 0.000000 0.000000 0.000000 0.000000
-70.734866 80.594608 306.654447 0.032818 0.050300 -7.921723 -0.025572 -0.054343 7.921697 -0.000000 0.000000 0.000000 1.137275 0.623011 -0.725548 0.000000 0.000000 0.000000 -0.000000 0.000000 0.000000 -0.000000 0.000000 0.000000 -0.000000 0.000000 0.000000 0.979853 2.904892 0.736779 0.000000 0.000000 0.000000 0.000000 0.000000 0.000000 -0.000000 0.000000 0.000000 -0.000000 0.000000 0.000000 -0.770303 0.490255 -0.128999 0.937363 -1.827241 -0.537261 0.000000 0.000000 0.000000 0.000000 0.000000 0.000000 -0.025572 -0.054343 7.921697 -0.000000 0.000000 0.000000 -0.024993 0.856021 0.717449 0.000000 0.000000 0.000000 -0.025572 -0.054343 7.921697 -0.000000 0.000000 0.000000 -0.508645 -1.573014 1.401051 0.000000 0.000000 0.000000
-70.711105 80.582620 306.654806 0.071989 0.106317 -7.797025 -0.056900 -0.115100 7.796901 -0.000000 0.000000 0.000000 2.037639 1.084403 -1.307768 0.000000 0.000000 0.000000 -0.000000 0.000000 0.000000 1.005148 0.682745 0.182391 -0.118703 -0.121086 -0.026855 0.856913 5.125829 1.218885 0.000000 0.000000 0.000000 0.000000 0.000000 0.000000 -0.000000 0.000000 0.000000 -0.000000 0.000000 0.000000 -1.387633 0.809914 -0.225151 1.633889 -3.077300 -0.919336 0.000000 0.000000 0.000000 0.000000 0.000000 0.000000 -0.056900 -0.115100 7.796901 -0.000000 0.000000 0.000000 -0.014358 0.754698 0.613162 0.000000 0.000000 0.000000 -0.056900 -0.115100 7.796901 -0.000000 0.000000 0.000000 -1.088916 -3.600374 3.070730 0.000000 0.000000 0.000000
-70.687744 80.571514 306.660585 0.117513 0.168056 -7.725400 -0.093856 -0.182327 7.725078 -0.000000 0.000000 0.000000 2.705139 1.395849 -1.745392 0.000000 0.000000 0.000000 -0.000000 0.000000 0.000000 1.462480 1.011803 0.258237 -0.383288 -0.165337 -0.104855 1.153000 7.405109 1.744991 0.000000 0.000000 0.000000 0.000000 0.000000 0.000000 -0.000000 0.000000 0.000000 -0.000000 0.000000 0.000000 -1.833329 0.942808 -0.289442 2.076554 -3.749787 -1.166198 0.000000 0.000000 0.000000 0.000000 0.000000 0.000000 -0.093856 -0.182327 7.725078 -0.000000 0.000000 0.000000 -0.000000 0.000000 0.000000 0.000000 0.000000 0.000000 -0.093856 -0.182327 7.725078 -0.000000 0.000000 0.000000 -1.732414 -6.201557 5.077890 0.000000 0.000000 0.000000
-70.664784 80.561290 306.671786 0.169394 0.235521 -7.707015 -0.136281 -0.256110 7.706362 -0.000000 0.000000 0.000000 3.143315 1.565993 -2.038128 0.000000 0.000000 0.000000 0.838727 0.213146 0.084629 1.052618 1.117737 0.243616 -0.769165 -0.191081 -0.224509 1.295250 9.360554 2.206822 0.000000 0.000000 0.000000 0.000000 0.000000 0.000000 -0.000000 0.000000 0.000000 -0.000000 0.000000 0.000000 -2.093392 0.878672 -0.322441 2.253500 -3.843357 -1.289001 0.000000 0.000000 0.000000 0.000000 0.000000 0.000000 -0.136281 -0.256110 7.706362 -0.000000 0.000000 0.000000 0.054839 -2.378772 -2.112505 0.000000 0.000000 0.000000 -0.136281 -0.256110 7.706362 -0.000000 0.000000 0.000000 -2.414544 -9.536020 7.515273 0.000000 0.000000 0.000000
-70.642224 80.551947 306.688406 0.227636 0.308719 -7.741942 -0.183977 -0.336568 7.740788 -0.000000 0.000000 0.000000 3.354692 1.600323 -2.186138 0.000000 0.000000 0.000000 1.055093 0.384504 0.075501 1.233505 1.258347 0.313809 -1.272757 -0.192132 -0.386920 1.256782 10.903068 2.602221 0.000000 0.000000 0.000000 0.000000 0.000000 0.000000 -0.000000 0.000000 0.000000 -0.308393 0.789529 -0.042613 -1.850803 -0.176513 -0.306839 2.156131 -3.355480 -1.289392 0.000000 0.000000 0.000000 0.000000 0.000000 0.000000 -0.183977 -0.336568 7.740788 0.093653 0.891721 0.028023 -0.142936 -6.688320 -5.107142 0.000000 0.000000 0.000000 -0.183977 -0.336568 7.740788 -0.000000 0.000000 0.000000 -3.077655 -13.807625 10.509044 0.000000 0.000000 0.000000
-70.620679 80.535583 306.704449 0.310657 0.417245 -7.848367 -0.250780 -0.455753 7.846238 -0.000000 0.000000 0.000000 3.228319 1.153208 -2.157634 0.000000 0.000000 0.000000 1.380361 0.714975 0.041190 1.517693 1.245271 0.475770 -2.413855 0.218040 -0.829941 2.103403 13.146335 3.494915 0.000000 0.000000 0.000000 0.000000 0.000000 0.000000 -0.000000 0.000000 0.000000 -0.263947 0.925088 -0.019762 -1.275428 -0.940134 -0.219115 1.255367 -1.472094 -0.880096 0.000000 0.000000 0.000000 0.000000 0.000000 0.000000 -0.250780 -0.455753 7.846238 0.112179 0.982406 0.030204 -0.773854 -11.579735 -8.802163 0.000000 0.000000 0.000000 -0.250780 -0.455753 7.846238 -0.000000 0.000000 0.000000 -3.720440 -21.936911 16.144386 0.000000 0.000000 0.000000
-70.597419 80.527240 306.737158 0.389649 0.518208 -8.037685 -0.313379 -0.567589 8.034370 -0.000000 0.000000 0.000000 2.864255 0.915307 -1.928939 0.000000 0.000000 0.000000 1.595412 1.037558 -0.010435 1.674294 1.340635 0.561862 -3.538724 -0.407509 -1.082379 1.400129 12.847146 3.398456 0.000000 0.000000 0.000000 0.000000 0.000000 0.000000 -0.000000 0.000000 0.000000 -0.157024 1.020026 0.019287 -1.248585 -2.241776 -0.199148 1.401135 1.225904 0.127662 0.000000 0.000000 0.000000 0.000000 0.000000 0.000000 -0.313379 -0.567589 8.034370 0.129702 0.978836 0.028931 -4.802256 -26.641202 -24.780123 0.000000 0.000000 0.000000 -0.313379 -0.567589 8.034370 -0.000000 0.000000 0.000000 -3.359482 -31.316089 23.058567 0.000000 0.000000 0.000000
-70.578616 80.529361 306.771124 0.453654 0.586776 -8.230207 -0.365010 -0.645658 8.225827 -0.000000 0.000000 0.000000 2.445560 0.596359 -1.673281 0.000000 0.000000 0.000000 1.743522 1.269785 -0.049465 1.655811 1.388977 0.586420 -4.047429 -0.701972 -1.202168 -0.276881 12.762063 3.216584 0.000000 0.000000 0.000000 0.000000 0.000000 0.000000 -0.000000 0.000000 0.000000 -0.079013 0.984012 0.040659 -1.353765 -2.580040 -0.212753 0.175450 3.629536 0.481426 0.000000 0.000000 0.000000 0.000000 0.000000 0.000000 -0.365010 -0.645658 8.225827 0.221591 0.934224 0.021336 -14.489178 -39.554543 -44.166599 0.000000 0.000000 0.000000 -0.365010 -0.645658 8.225827 -0.000000 0.000000 0.000000 -1.843138 -39.616666 29.638364 0.000000 0.000000 0.000000
-70.560143 80.539509 306.812620 0.504283 0.656377 -8.433514 -0.402599 -0.723217 8.428085 -0.000000 0.000000 0.000000 2.244671 0.128723 -1.597178 0.000000 0.000000 0.000000 1.890016 1.569516 -0.107683 1.443002 1.321702 0.579554 -4.047829 -0.668668 -1.215537 -1.664881 11.269658 2.809813 0.000000 0.000000 0.000000 0.000000 0.000000 0.000000 0.570127 -0.626973 0.003457 -0.592950 1.596002 0.059852 -0.409958 -3.506007 -0.016776 -0.601221 5.464420 1.030300 0.000000 0.000000 0.000000 0.000000 0.000000 0.000000 -0.402599 -0.723217 8.428085 0.224276 0.892215 0.019641 -19.281569 -43.052571 -52.009429 0.000000 0.000000 0.000000 -0.402599 -0.723217 8.428085 -0.000000 0.000000 0.000000 -0.087277 -44.902545 34.355945 0.000000 0.000000 0.000000
-70.538904 80.549156 306.857569 0.560426 0.717873 -8.595235 0.017127 -0.081802 8.604401 -0.007668 0.040423 0.018087 1.617015 -0.555684 -1.556430 0.000000 0.000000 0.000000 1.437925 1.201563 -0.185410 1.077726 1.108394 0.548041 -3.496621 -0.533634 -1.061894 -2.500345 10.324803 2.506011 0.000000 0.000000 0.000000 0.000000 0.000000 0.000000 0.153792 -1.231646 0.018280 -0.712824 1.562376 0.028714 -0.441523 -4.253206 0.002234 -1.548112 5.612668 0.020329 0.000000 0.000000 0.000000 0.000000 0.000000 0.000000 -0.446890 -0.793540 8.588629 0.279473 0.870682 0.015321 -11.441318 -36.455725 -37.823374 0.000000 0.000000 0.000000 -0.446890 -0.793540 8.588629 -0.000000 0.000000 0.000000 2.522289 -50.212776 39.710316 0.000000 0.000000 0.000000
-70.527038 80.569596 306.895396 0.617885 0.787499 -8.734132 0.024885 -0.089011 8.744147 -0.011814 0.038307 0.020065 1.620315 -0.242810 -1.548107 0.000000 0.000000 0.000000 1.465848 1.387568 -0.240079 1.003103 1.139108 0.549848 -3.895339 -0.609456 -1.186507 -3.506894 10.828498 2.593793 0.000000 0.000000 0.000000 0.000000 0.000000 0.000000 0.264673 -1.224158 0.062321 -0.903347 1.446777 -0.025416 -0.598479 -4.703890 -0.000168 -1.043052 6.005124 0.179342 0.000000 0.000000 0.000000 0.000000 0.000000 0.000000 -0.491200 -0.872155 8.726148 0.327696 0.852930 0.011602 -4.050871 -24.421292 -22.564617 0.000000 0.000000 0.000000 -0.491200 -0.872155 8.726148 -0.000000 0.000000 0.000000 -0.286461 -45.105515 33.505142 0.000000 0.000000 0.000000
-70.517519 80.579508 306.941878 0.668976 0.839591 -8.806102 0.034389 -0.106543 8.817115 -0.011860 0.033619 0.022386 1.812992 0.334449 -1.640307 0.000000 0.000000 0.000000 1.501819 1.557060 -0.282470 0.788801 0.937263 0.551039 -3.848870 -0.633702 -1.165749 -2.939429 10.964411 2.721352 0.000000 0.000000 0.000000 0.000000 0.000000 0.000000 0.394317 -1.173475 0.111422 -1.083005 1.395191 -0.072092 -0.408647 -5.597159 0.070105 -2.354244 7.115205 -0.426116 0.000000 0.000000 0.000000 0.000000 0.000000 0.000000 -0.532633 -0.932061 8.796868 0.411944 0.874287 0.006952 -2.281999 -19.196123 -17.400465 0.000000 0.000000 0.000000 -0.532633 -0.932061 8.796868 -0.000000 0.000000 0.000000 -2.004159 -40.001524 28.708228 0.000000 0.000000 0.000000
